<?xml version="1.0" standalone="no"?>
<!DOCTYPE svg PUBLIC "-//W3C//DTD SVG 20010904//EN"
 "http://www.w3.org/TR/2001/REC-SVG-20010904/DTD/svg10.dtd">
<svg version="1.0" xmlns="http://www.w3.org/2000/svg"
 width="466.000000pt" height="472.000000pt" viewBox="0 0 466.000000 472.000000"
 preserveAspectRatio="xMidYMid meet">

<g transform="translate(0.000000,472.000000) scale(0.100000,-0.100000)"
fill="#000000" stroke="none">
<path d="M1058 1001 c-27 -24 -32 -36 -36 -87 -3 -50 0 -64 20 -94 56 -83 182
-58 195 38 l6 42 -53 0 c-58 0 -68 -23 -12 -28 38 -4 39 -10 11 -46 -46 -58
-139 -11 -139 70 0 41 22 89 45 98 36 13 74 6 93 -19 11 -14 27 -25 36 -25 15
0 15 3 1 30 -30 57 -114 68 -167 21z"/>
<path d="M1370 900 c0 -109 2 -130 15 -130 11 0 15 12 15 50 0 50 0 50 33 50
29 0 36 -5 55 -45 21 -43 46 -65 59 -52 3 3 -7 27 -22 53 -27 47 -27 47 -8 63
29 23 36 65 19 100 -17 33 -40 41 -113 41 l-53 0 0 -130z m128 88 c7 -7 12
-24 12 -38 0 -37 -18 -50 -67 -50 l-43 0 0 50 0 50 43 0 c24 0 48 -5 55 -12z"/>
<path d="M1670 900 l0 -130 80 0 c63 0 80 3 80 15 0 10 -16 15 -62 17 -62 3
-63 3 -64 33 -1 50 4 55 62 55 30 0 54 5 54 10 0 6 -24 10 -54 10 -54 0 -54 0
-58 34 -6 52 -1 56 63 56 46 0 59 3 59 15 0 12 -16 15 -80 15 l-80 0 0 -130z"/>
<path d="M1960 900 l0 -130 80 0 c64 0 80 3 80 15 0 12 -14 15 -66 15 l-65 0
3 43 3 42 58 3 c31 2 57 7 57 12 0 5 -26 10 -57 12 l-58 3 -3 43 -3 42 65 0
c52 0 66 3 66 15 0 12 -16 15 -80 15 l-80 0 0 -130z"/>
<path d="M2250 900 c0 -109 2 -130 15 -130 12 0 15 17 15 95 0 52 4 95 8 95 5
0 37 -43 73 -95 89 -131 97 -128 93 33 -3 105 -6 128 -19 130 -13 3 -15 -12
-15 -95 -1 -112 7 -114 -88 21 -76 108 -82 104 -82 -54z"/>
<path d="M2590 900 l0 -130 75 0 c60 0 75 3 75 15 0 12 -13 15 -60 15 l-60 0
0 115 c0 96 -3 115 -15 115 -13 0 -15 -21 -15 -130z"/>
<path d="M2870 900 l0 -130 80 0 c64 0 80 3 80 15 0 12 -14 15 -65 15 l-65 0
0 45 0 45 54 0 c30 0 58 5 61 10 4 6 -17 10 -54 10 l-61 0 0 45 0 45 60 0 c47
0 60 3 60 15 0 12 -15 15 -75 15 l-75 0 0 -130z"/>
<path d="M3221 1003 c-33 -86 -81 -227 -77 -231 12 -11 35 9 41 37 6 30 8 31
65 31 57 0 59 -1 65 -31 6 -28 29 -48 41 -37 3 4 -49 159 -81 241 -11 26 -41
21 -54 -10z m53 -77 c9 -27 16 -51 16 -53 0 -2 -18 -3 -40 -3 -22 0 -40 3 -40
7 0 19 36 111 41 105 4 -4 14 -29 23 -56z"/>
<path d="M3480 900 c0 -107 3 -130 15 -130 10 0 15 15 17 58 l3 57 53 3 c28 2
52 7 52 12 0 5 -24 10 -52 12 l-53 3 -3 43 -3 42 59 0 c44 0 61 4 66 15 4 13
-8 15 -74 15 l-80 0 0 -130z"/>
</g>
</svg>
