<svg version="1.1" id="Layer_1" xmlns="http://www.w3.org/2000/svg" xmlns:xlink="http://www.w3.org/1999/xlink" x="0px" y="0px"
	 width="100%" viewBox="0 0 466 472" enable-background="new 0 0 466 472" xml:space="preserve">
<path fill="#FFFFFE" opacity="1.000000" stroke="none" 
	d="
M293.000000,473.000000 
	C195.333328,473.000000 98.166664,473.000000 1.000000,473.000000 
	C1.000000,315.666656 1.000000,158.333328 1.000000,1.000000 
	C156.333328,1.000000 311.666656,1.000000 467.000000,1.000000 
	C467.000000,158.333328 467.000000,315.666656 467.000000,473.000000 
	C409.166656,473.000000 351.333344,473.000000 293.000000,473.000000 
M264.130676,391.919159 
	C264.130676,384.805725 264.130676,377.692291 264.130676,370.247406 
	C262.570251,370.122620 261.362976,370.026093 260.143921,369.928589 
	C260.143921,378.802277 260.143921,387.301849 260.143921,396.086975 
	C264.818207,396.086975 269.113586,396.178558 273.398438,396.007019 
	C274.221100,395.974091 275.002319,394.907227 275.802643,394.317322 
	C275.191223,393.845459 274.579803,393.373596 273.093018,392.743958 
	C270.185608,392.764069 267.278198,392.784180 264.130676,391.919159 
M319.627380,219.043655 
	C336.913391,219.893005 351.641510,214.226852 364.179749,202.269440 
	C341.799347,178.085495 300.913971,180.460602 281.947296,202.451752 
	C292.243256,212.379715 304.486938,217.786880 319.627380,219.043655 
M162.094025,187.232803 
	C138.065765,182.168579 111.842957,189.034409 104.302277,202.364227 
	C126.172493,225.706985 167.744598,223.679031 185.881561,201.517776 
	C179.598068,194.565414 171.551590,190.514130 162.094025,187.232803 
M250.477600,265.158020 
	C246.804718,259.408875 243.131836,253.659729 239.528015,248.018707 
	C237.974854,248.862427 237.625641,248.960480 237.405121,249.184937 
	C216.633926,270.325012 216.017990,306.316528 235.894943,328.404938 
	C238.504166,331.304443 240.416458,329.783325 241.840210,327.536438 
	C245.110794,322.374939 248.695129,317.285858 251.068237,311.706421 
	C257.537567,296.496399 256.911591,281.106079 250.477600,265.158020 
M243.853912,144.255692 
	C253.670212,128.559860 255.829025,111.681290 250.893295,94.026947 
	C248.345551,84.914078 243.850052,76.692833 236.553070,70.288063 
	C217.757019,87.899544 213.433884,120.351585 229.062256,143.868408 
	C236.371521,154.867065 235.923630,154.684448 243.853912,144.255692 
M281.421173,274.968628 
	C282.014771,274.438812 283.098145,273.934448 283.127167,273.375305 
	C283.465973,266.853882 283.716736,260.325348 283.821655,253.796005 
	C283.850311,252.013474 283.314331,250.221848 283.264862,249.902390 
	C291.049652,248.493240 298.064056,247.694763 304.791718,245.850494 
	C309.800537,244.477402 310.027710,242.315674 306.646454,238.312805 
	C298.187592,228.298798 287.392792,223.886765 274.356903,225.103073 
	C265.221680,225.955429 260.753998,229.522720 258.940216,236.430069 
	C255.508545,249.498764 263.580994,269.478851 281.421173,274.968628 
M272.978455,184.983017 
	C276.636597,185.001801 280.299591,185.150085 283.951965,185.014282 
	C293.603729,184.655457 305.801331,175.712341 308.763245,166.810028 
	C301.157166,161.022919 291.992157,162.129303 282.728638,161.934341 
	C283.281616,159.192871 283.951813,157.292145 283.996765,155.376724 
	C284.123566,149.970612 284.197144,144.547241 283.898712,139.152390 
	C283.671967,135.052643 281.478729,134.176285 277.799744,136.160706 
	C265.305054,142.900162 258.728485,153.400909 258.212128,167.461182 
	C257.835022,177.728943 259.869537,180.364517 269.258362,184.046844 
	C270.179047,184.407944 271.149597,184.641998 272.978455,184.983017 
M180.454498,248.052765 
	C185.021255,248.052765 189.588013,248.052765 192.887711,248.052765 
	C192.887711,255.741013 192.504196,263.091156 193.016617,270.378296 
	C193.385239,275.620361 194.762939,276.021301 199.415619,273.775970 
	C213.979355,266.747681 221.338394,250.313690 217.026871,233.822540 
	C216.516510,231.870422 214.838837,229.655945 213.082275,228.686722 
	C198.679382,220.739655 178.670486,225.721909 169.516174,239.287613 
	C167.739761,241.920044 167.279388,244.235657 171.058777,245.433212 
	C173.892685,246.331177 176.755890,247.136719 180.454498,248.052765 
M168.065552,165.456757 
	C168.351959,166.227921 168.529251,167.063538 168.941025,167.760651 
	C175.946274,179.620499 193.180771,186.652649 206.340988,182.446350 
	C210.163788,181.224487 215.658310,178.797852 216.521393,175.807816 
	C221.669952,157.971466 214.878418,142.079391 197.920898,133.906281 
	C195.200119,132.594925 193.817978,133.372757 193.157303,136.005707 
	C192.675415,137.926239 192.040482,139.926834 192.146774,141.854630 
	C192.487793,148.038513 193.141541,154.205154 193.677689,160.414017 
	C185.340958,159.573456 176.282776,159.060150 168.065552,165.456757 
M313.071350,289.485107 
	C318.068237,292.166992 323.285065,293.760376 329.031464,293.091248 
	C329.253876,274.182617 312.647217,257.957214 296.853546,261.733673 
	C296.949249,273.758453 301.903992,282.972626 313.071350,289.485107 
M178.595520,271.900879 
	C179.160919,268.413910 179.726318,264.926941 180.287842,261.463898 
	C164.167419,258.858459 145.045364,275.911041 148.344543,293.354462 
	C162.841675,292.937592 172.714539,285.933716 178.595520,271.900879 
M156.340195,116.021469 
	C153.493515,115.650551 150.646851,115.279625 147.765533,114.904198 
	C146.618866,133.147385 164.072220,150.180725 179.618210,146.892242 
	C181.150284,133.720459 171.861267,121.042381 156.340195,116.021469 
M309.594788,123.030853 
	C301.075226,129.650528 296.469543,138.083038 297.066193,149.076172 
	C314.328400,151.152588 331.982605,132.997040 328.357605,117.108681 
	C321.678558,116.829712 315.733124,119.046516 309.594788,123.030853 
M225.681122,374.103882 
	C225.681122,381.248444 225.681122,388.393036 225.681122,395.451538 
	C228.929886,396.819489 229.865295,395.588654 229.806503,392.705597 
	C229.713837,388.160217 229.781860,383.611572 229.781860,379.064331 
	C234.414261,383.575287 237.675873,388.493652 241.263580,393.161407 
	C242.386169,394.621918 244.387833,395.406738 246.722198,397.003754 
	C246.722198,387.025513 246.722198,378.617737 246.722198,369.939484 
	C245.355652,370.006073 244.268570,370.059021 242.766876,370.132202 
	C242.766876,376.098358 242.766876,381.813995 242.766876,388.922028 
	C238.305374,382.515747 234.741974,377.186676 230.906540,372.061188 
	C230.085541,370.964081 228.278397,370.604889 226.925522,369.905762 
	C226.510406,371.027740 226.095276,372.149750 225.681122,374.103882 
M117.844086,391.904694 
	C109.875702,393.874237 105.026352,388.870911 107.083687,380.111481 
	C107.665665,377.633606 110.090988,374.503113 112.329033,373.816254 
	C114.415024,373.175995 117.383759,375.367371 119.948868,376.351501 
	C121.238556,376.846313 122.494843,377.428223 124.940369,378.471771 
	C120.836800,370.075500 115.569870,367.764069 109.485123,370.411804 
	C103.518639,373.008087 100.762398,381.098724 103.321846,388.503448 
	C105.418488,394.569214 111.358368,397.676117 117.696945,396.022461 
	C123.536995,394.498871 126.142647,389.647461 124.692162,382.737000 
	C121.622543,382.737000 118.513718,382.737000 115.239578,382.737000 
	C114.550919,388.329590 119.468826,384.623138 121.329544,387.326294 
	C120.611458,388.429077 119.607460,389.970947 117.844086,391.904694 
M152.362839,370.995728 
	C147.518692,370.458191 142.674561,369.920624 137.543488,369.351196 
	C137.543488,378.812683 137.543488,387.224915 137.543488,395.865387 
	C138.757996,395.865387 140.506210,396.053680 140.557922,395.837036 
	C141.290558,392.767395 141.793076,389.642822 142.323441,386.686676 
	C147.088669,384.773163 148.219116,388.275787 149.744644,391.255554 
	C151.145782,393.992340 152.118439,397.500427 156.705734,395.513519 
	C155.430069,393.138214 153.930527,390.894501 153.028381,388.431915 
	C152.586060,387.224579 152.764816,385.257904 153.500381,384.240936 
	C157.084839,379.285004 157.086990,376.336884 152.362839,370.995728 
M299.296539,396.078888 
	C300.765503,396.005463 302.234467,395.932007 305.215149,395.783020 
	C300.989502,390.216492 295.182709,394.327057 291.631409,391.677246 
	C291.631409,389.524323 291.631409,387.443573 291.631409,384.844299 
	C294.582886,384.844299 297.231110,385.047241 299.821594,384.748749 
	C300.924713,384.621613 301.906952,383.445740 302.944122,382.746429 
	C301.953796,382.185394 300.996155,381.224579 299.966827,381.140442 
	C297.202271,380.914429 294.407043,381.063293 291.699554,381.063293 
	C290.854004,373.328918 290.854004,373.329407 297.552551,373.314270 
	C298.882599,373.311249 300.267853,373.527618 301.523682,373.219360 
	C302.386353,373.007599 303.069305,372.063873 303.832581,371.447296 
	C303.130554,370.917023 302.441254,369.948151 301.724487,369.927429 
	C296.981415,369.790161 292.232452,369.856445 287.561340,369.856445 
	C287.561340,378.949982 287.561340,387.352112 287.561340,396.077789 
	C291.394775,396.077789 294.871582,396.077789 299.296539,396.078888 
M315.697266,391.872192 
	C315.312164,393.082031 314.927094,394.291870 314.541992,395.501709 
	C314.912109,395.857819 315.282227,396.213959 315.652313,396.570068 
	C316.931671,395.440948 318.908447,394.533264 319.351257,393.138519 
	C320.410156,389.803680 322.270477,388.971344 325.592651,389.048279 
	C329.024567,389.127777 331.675232,389.253998 332.665894,393.383911 
	C332.965332,394.632111 335.124786,395.434143 336.432220,396.440521 
	C336.779938,396.048096 337.127655,395.655640 337.475403,395.263184 
	C334.718323,387.623138 332.057373,379.945496 329.100159,372.383728 
	C328.658783,371.255096 326.873108,370.127014 325.620209,370.017487 
	C324.719849,369.938812 323.190704,371.368164 322.768066,372.448059 
	C320.349731,378.627563 318.178650,384.903839 315.697266,391.872192 
M200.947479,379.304474 
	C200.947479,377.382141 200.947479,375.459778 200.947479,373.256592 
	C204.775208,373.256592 207.933533,373.380432 211.068863,373.166687 
	C211.822647,373.115295 212.500046,371.943573 213.212555,371.287048 
	C212.496414,370.808319 211.791107,369.935089 211.062378,369.915070 
	C206.454132,369.788452 201.840698,369.850830 197.305405,369.850830 
	C197.305405,378.855988 197.305405,387.381287 197.305405,395.811523 
	C202.839600,395.811523 207.947632,395.811523 213.055664,395.811523 
	C213.187820,395.296539 213.319992,394.781555 213.452148,394.266571 
	C210.420441,390.348511 204.963318,394.241760 201.233719,391.841736 
	C201.233719,389.722717 201.233719,387.493103 201.233719,384.800171 
	C204.315765,384.800171 207.118530,384.932678 209.895370,384.722717 
	C210.775085,384.656219 211.585709,383.675781 212.427933,383.113586 
	C211.539658,382.441681 210.725876,381.350616 209.749023,381.177032 
	C206.895142,380.669830 203.976212,380.528656 200.947479,379.304474 
M174.651871,381.092346 
	C169.532837,379.875671 172.860138,376.270996 172.142120,373.270355 
	C175.851730,373.270355 179.159790,373.363525 182.454285,373.193573 
	C183.131516,373.158630 183.758011,372.140686 184.407898,371.575867 
	C183.753387,371.017792 183.112610,369.996033 182.442184,369.976196 
	C177.705566,369.836090 172.962875,369.901672 168.231689,369.901672 
	C168.231689,378.878448 168.231689,387.271606 168.231689,396.056671 
	C172.963928,396.056671 177.418320,396.164276 181.859451,395.969635 
	C182.794449,395.928650 183.680817,394.778412 184.589584,394.139282 
	C183.720581,393.607605 182.875076,392.669128 181.978333,392.617310 
	C178.754700,392.431061 175.513748,392.544250 172.374481,392.544250 
	C172.374481,389.477722 172.374481,387.260315 172.374481,384.816315 
	C175.414413,384.816315 178.081955,384.990204 180.705597,384.726837 
	C181.691986,384.627808 182.576508,383.514160 183.507477,382.863098 
	C182.525879,382.280060 181.601608,381.376892 180.549347,381.188446 
	C178.939743,380.900146 177.241852,381.104828 174.651871,381.092346 
M356.421967,373.317627 
	C358.579712,373.306549 360.749847,373.422546 362.888367,373.214111 
	C363.618805,373.142853 364.269836,372.257172 364.957184,371.743622 
	C364.243561,371.099274 363.549713,369.924530 362.813110,369.897125 
	C358.211914,369.725677 353.601135,369.810577 348.767914,369.810577 
	C348.767914,378.735138 348.767914,387.138092 348.767914,395.905579 
	C349.867920,395.905579 351.595154,396.068817 351.634064,395.881409 
	C352.370972,392.333557 352.908417,388.744263 353.544769,384.808807 
	C356.211304,384.808807 358.860413,384.955200 361.476013,384.723236 
	C362.305054,384.649719 363.044586,383.566742 363.825073,382.945709 
	C363.040955,382.327393 362.295105,381.244171 361.465698,381.175903 
	C358.723358,380.950165 355.950867,381.090759 352.477722,381.090759 
	C353.997833,378.056976 350.269592,374.283447 356.421967,373.317627 
z"/>
<path fill="#E0E48A" opacity="1.000000" stroke="none" 
	d="
M319.152863,219.032623 
	C304.486938,217.786880 292.243256,212.379715 281.947296,202.451752 
	C300.913971,180.460602 341.799347,178.085495 364.179749,202.269440 
	C351.641510,214.226852 336.913391,219.893005 319.152863,219.032623 
z"/>
<path fill="#E0E48A" opacity="1.000000" stroke="none" 
	d="
M162.473328,187.372528 
	C171.551590,190.514130 179.598068,194.565414 185.881561,201.517776 
	C167.744598,223.679031 126.172493,225.706985 104.302277,202.364227 
	C111.842957,189.034409 138.065765,182.168579 162.473328,187.372528 
z"/>
<path fill="#E0E48B" opacity="1.000000" stroke="none" 
	d="
M250.625305,265.509949 
	C256.911591,281.106079 257.537567,296.496399 251.068237,311.706421 
	C248.695129,317.285858 245.110794,322.374939 241.840210,327.536438 
	C240.416458,329.783325 238.504166,331.304443 235.894943,328.404938 
	C216.017990,306.316528 216.633926,270.325012 237.405121,249.184937 
	C237.625641,248.960480 237.974854,248.862427 239.528015,248.018707 
	C243.131836,253.659729 246.804718,259.408875 250.625305,265.509949 
z"/>
<path fill="#E0E48A" opacity="1.000000" stroke="none" 
	d="
M243.662003,144.566238 
	C235.923630,154.684448 236.371521,154.867065 229.062256,143.868408 
	C213.433884,120.351585 217.757019,87.899544 236.553070,70.288063 
	C243.850052,76.692833 248.345551,84.914078 250.893295,94.026947 
	C255.829025,111.681290 253.670212,128.559860 243.662003,144.566238 
z"/>
<path fill="#E1E48D" opacity="1.000000" stroke="none" 
	d="
M281.030334,274.979858 
	C263.580994,269.478851 255.508545,249.498764 258.940216,236.430069 
	C260.753998,229.522720 265.221680,225.955429 274.356903,225.103073 
	C287.392792,223.886765 298.187592,228.298798 306.646454,238.312805 
	C310.027710,242.315674 309.800537,244.477402 304.791718,245.850494 
	C298.064056,247.694763 291.049652,248.493240 283.264862,249.902390 
	C283.314331,250.221848 283.850311,252.013474 283.821655,253.796005 
	C283.716736,260.325348 283.465973,266.853882 283.127167,273.375305 
	C283.098145,273.934448 282.014771,274.438812 281.030334,274.979858 
z"/>
<path fill="#E0E48B" opacity="1.000000" stroke="none" 
	d="
M272.537720,184.959015 
	C271.149597,184.641998 270.179047,184.407944 269.258362,184.046844 
	C259.869537,180.364517 257.835022,177.728943 258.212128,167.461182 
	C258.728485,153.400909 265.305054,142.900162 277.799744,136.160706 
	C281.478729,134.176285 283.671967,135.052643 283.898712,139.152390 
	C284.197144,144.547241 284.123566,149.970612 283.996765,155.376724 
	C283.951813,157.292145 283.281616,159.192871 282.728638,161.934341 
	C291.992157,162.129303 301.157166,161.022919 308.763245,166.810028 
	C305.801331,175.712341 293.603729,184.655457 283.951965,185.014282 
	C280.299591,185.150085 276.636597,185.001801 272.537720,184.959015 
z"/>
<path fill="#E1E48B" opacity="1.000000" stroke="none" 
	d="
M180.030273,248.018082 
	C176.755890,247.136719 173.892685,246.331177 171.058777,245.433212 
	C167.279388,244.235657 167.739761,241.920044 169.516174,239.287613 
	C178.670486,225.721909 198.679382,220.739655 213.082275,228.686722 
	C214.838837,229.655945 216.516510,231.870422 217.026871,233.822540 
	C221.338394,250.313690 213.979355,266.747681 199.415619,273.775970 
	C194.762939,276.021301 193.385239,275.620361 193.016617,270.378296 
	C192.504196,263.091156 192.887711,255.741013 192.887711,248.052765 
	C189.588013,248.052765 185.021255,248.052765 180.030273,248.018082 
z"/>
<path fill="#E0E48B" opacity="1.000000" stroke="none" 
	d="
M168.166382,165.097626 
	C176.282776,159.060150 185.340958,159.573456 193.677689,160.414017 
	C193.141541,154.205154 192.487793,148.038513 192.146774,141.854630 
	C192.040482,139.926834 192.675415,137.926239 193.157303,136.005707 
	C193.817978,133.372757 195.200119,132.594925 197.920898,133.906281 
	C214.878418,142.079391 221.669952,157.971466 216.521393,175.807816 
	C215.658310,178.797852 210.163788,181.224487 206.340988,182.446350 
	C193.180771,186.652649 175.946274,179.620499 168.941025,167.760651 
	C168.529251,167.063538 168.351959,166.227921 168.166382,165.097626 
z"/>
<path fill="#ABB13A" opacity="1.000000" stroke="none" 
	d="
M312.754333,289.291718 
	C301.903992,282.972626 296.949249,273.758453 296.853546,261.733673 
	C312.647217,257.957214 329.253876,274.182617 329.031464,293.091248 
	C323.285065,293.760376 318.068237,292.166992 312.754333,289.291718 
z"/>
<path fill="#ADB139" opacity="1.000000" stroke="none" 
	d="
M178.453995,272.271912 
	C172.714539,285.933716 162.841675,292.937592 148.344543,293.354462 
	C145.045364,275.911041 164.167419,258.858459 180.287842,261.463898 
	C179.726318,264.926941 179.160919,268.413910 178.453995,272.271912 
z"/>
<path fill="#ABB13A" opacity="1.000000" stroke="none" 
	d="
M156.737106,116.113121 
	C171.861267,121.042381 181.150284,133.720459 179.618210,146.892242 
	C164.072220,150.180725 146.618866,133.147385 147.765533,114.904198 
	C150.646851,115.279625 153.493515,115.650551 156.737106,116.113121 
z"/>
<path fill="#ADB139" opacity="1.000000" stroke="none" 
	d="
M309.884216,122.816757 
	C315.733124,119.046516 321.678558,116.829712 328.357605,117.108681 
	C331.982605,132.997040 314.328400,151.152588 297.066193,149.076172 
	C296.469543,138.083038 301.075226,129.650528 309.884216,122.816757 
z"/>
<path fill="#767C28" opacity="1.000000" stroke="none" 
	d="
M225.680634,373.687805 
	C226.095276,372.149750 226.510406,371.027740 226.925537,369.905762 
	C228.278397,370.604889 230.085541,370.964081 230.906540,372.061188 
	C234.741974,377.186676 238.305374,382.515747 242.766876,388.922028 
	C242.766876,381.813995 242.766876,376.098358 242.766876,370.132202 
	C244.268570,370.059021 245.355652,370.006073 246.722198,369.939484 
	C246.722198,378.617737 246.722198,387.025513 246.722198,397.003754 
	C244.387833,395.406738 242.386169,394.621918 241.263580,393.161407 
	C237.675873,388.493652 234.414261,383.575287 229.781860,379.064331 
	C229.781860,383.611572 229.713837,388.160217 229.806503,392.705597 
	C229.865295,395.588654 228.929886,396.819489 225.681122,395.451538 
	C225.681122,388.393036 225.681122,381.248444 225.680634,373.687805 
z"/>
<path fill="#767C28" opacity="1.000000" stroke="none" 
	d="
M118.223770,391.708740 
	C119.607460,389.970947 120.611458,388.429077 121.329544,387.326294 
	C119.468826,384.623138 114.550919,388.329590 115.239578,382.737000 
	C118.513718,382.737000 121.622543,382.737000 124.692162,382.737000 
	C126.142647,389.647461 123.536995,394.498871 117.696945,396.022461 
	C111.358368,397.676117 105.418488,394.569214 103.321846,388.503448 
	C100.762398,381.098724 103.518639,373.008087 109.485123,370.411804 
	C115.569870,367.764069 120.836800,370.075500 124.940369,378.471771 
	C122.494843,377.428223 121.238556,376.846313 119.948868,376.351501 
	C117.383759,375.367371 114.415024,373.175995 112.329033,373.816254 
	C110.090988,374.503113 107.665665,377.633606 107.083687,380.111481 
	C105.026352,388.870911 109.875702,393.874237 118.223770,391.708740 
z"/>
<path fill="#7A8130" opacity="1.000000" stroke="none" 
	d="
M152.683472,371.214081 
	C157.086990,376.336884 157.084839,379.285004 153.500381,384.240936 
	C152.764816,385.257904 152.586060,387.224579 153.028381,388.431915 
	C153.930527,390.894501 155.430069,393.138214 156.705734,395.513519 
	C152.118439,397.500427 151.145782,393.992340 149.744644,391.255554 
	C148.219116,388.275787 147.088669,384.773163 142.323441,386.686676 
	C141.793076,389.642822 141.290558,392.767395 140.557922,395.837036 
	C140.506210,396.053680 138.757996,395.865387 137.543488,395.865387 
	C137.543488,387.224915 137.543488,378.812683 137.543488,369.351196 
	C142.674561,369.920624 147.518692,370.458191 152.683472,371.214081 
M142.737488,382.703308 
	C149.530426,382.950684 151.975723,381.683594 151.930771,377.939667 
	C151.885391,374.161316 149.076004,372.761963 142.654892,373.358154 
	C142.377274,373.383942 142.127609,373.710846 141.393372,374.232452 
	C141.585770,376.691345 141.802353,379.459534 142.737488,382.703308 
z"/>
<path fill="#7A8130" opacity="1.000000" stroke="none" 
	d="
M298.822449,396.078339 
	C294.871582,396.077789 291.394775,396.077789 287.561340,396.077789 
	C287.561340,387.352112 287.561340,378.949982 287.561340,369.856445 
	C292.232452,369.856445 296.981415,369.790161 301.724487,369.927429 
	C302.441254,369.948151 303.130554,370.917023 303.832581,371.447296 
	C303.069305,372.063873 302.386353,373.007599 301.523682,373.219360 
	C300.267853,373.527618 298.882599,373.311249 297.552551,373.314270 
	C290.854004,373.329407 290.854004,373.328918 291.699554,381.063293 
	C294.407043,381.063293 297.202271,380.914429 299.966827,381.140442 
	C300.996155,381.224579 301.953796,382.185394 302.944122,382.746429 
	C301.906952,383.445740 300.924713,384.621613 299.821594,384.748749 
	C297.231110,385.047241 294.582886,384.844299 291.631409,384.844299 
	C291.631409,387.443573 291.631409,389.524323 291.631409,391.677246 
	C295.182709,394.327057 300.989502,390.216492 305.215149,395.783020 
	C302.234467,395.932007 300.765503,396.005463 298.822449,396.078339 
z"/>
<path fill="#767C28" opacity="1.000000" stroke="none" 
	d="
M315.810425,391.509735 
	C318.178650,384.903839 320.349731,378.627563 322.768066,372.448059 
	C323.190704,371.368164 324.719849,369.938812 325.620209,370.017487 
	C326.873108,370.127014 328.658783,371.255096 329.100159,372.383728 
	C332.057373,379.945496 334.718323,387.623138 337.475403,395.263184 
	C337.127655,395.655640 336.779938,396.048096 336.432220,396.440521 
	C335.124786,395.434143 332.965332,394.632111 332.665894,393.383911 
	C331.675232,389.253998 329.024567,389.127777 325.592651,389.048279 
	C322.270477,388.971344 320.410156,389.803680 319.351257,393.138519 
	C318.908447,394.533264 316.931671,395.440948 315.652313,396.570068 
	C315.282227,396.213959 314.912109,395.857819 314.541992,395.501709 
	C314.927094,394.291870 315.312164,393.082031 315.810425,391.509735 
M322.416046,384.651642 
	C324.676422,385.157379 326.936829,385.663086 330.147797,386.381470 
	C328.600128,381.998962 327.513000,378.920471 326.425842,375.841980 
	C326.073303,375.915344 325.720795,375.988708 325.368256,376.062073 
	C324.462524,378.684540 323.556793,381.307007 322.416046,384.651642 
z"/>
<path fill="#767C28" opacity="1.000000" stroke="none" 
	d="
M201.015121,379.774261 
	C203.976212,380.528656 206.895142,380.669830 209.749023,381.177032 
	C210.725876,381.350616 211.539658,382.441681 212.427933,383.113586 
	C211.585709,383.675781 210.775085,384.656219 209.895370,384.722717 
	C207.118530,384.932678 204.315765,384.800171 201.233719,384.800171 
	C201.233719,387.493103 201.233719,389.722717 201.233719,391.841736 
	C204.963318,394.241760 210.420441,390.348511 213.452148,394.266571 
	C213.319992,394.781555 213.187820,395.296539 213.055664,395.811523 
	C207.947632,395.811523 202.839600,395.811523 197.305405,395.811523 
	C197.305405,387.381287 197.305405,378.855988 197.305405,369.850830 
	C201.840698,369.850830 206.454132,369.788452 211.062378,369.915070 
	C211.791107,369.935089 212.496414,370.808319 213.212555,371.287048 
	C212.500046,371.943573 211.822647,373.115295 211.068863,373.166687 
	C207.933533,373.380432 204.775208,373.256592 200.947479,373.256592 
	C200.947479,375.459778 200.947479,377.382141 201.015121,379.774261 
z"/>
<path fill="#747A2C" opacity="1.000000" stroke="none" 
	d="
M175.116653,381.096313 
	C177.241852,381.104828 178.939743,380.900146 180.549347,381.188446 
	C181.601608,381.376892 182.525879,382.280060 183.507477,382.863098 
	C182.576508,383.514160 181.691986,384.627808 180.705597,384.726837 
	C178.081955,384.990204 175.414413,384.816315 172.374481,384.816315 
	C172.374481,387.260315 172.374481,389.477722 172.374481,392.544250 
	C175.513748,392.544250 178.754700,392.431061 181.978333,392.617310 
	C182.875076,392.669128 183.720581,393.607605 184.589584,394.139282 
	C183.680817,394.778412 182.794449,395.928650 181.859451,395.969635 
	C177.418320,396.164276 172.963928,396.056671 168.231689,396.056671 
	C168.231689,387.271606 168.231689,378.878448 168.231689,369.901672 
	C172.962875,369.901672 177.705566,369.836090 182.442184,369.976196 
	C183.112610,369.996033 183.753387,371.017792 184.407898,371.575867 
	C183.758011,372.140686 183.131516,373.158630 182.454285,373.193573 
	C179.159790,373.363525 175.851730,373.270355 172.142120,373.270355 
	C172.860138,376.270996 169.532837,379.875671 175.116653,381.096313 
z"/>
<path fill="#7A8130" opacity="1.000000" stroke="none" 
	d="
M355.935822,373.322052 
	C350.269592,374.283447 353.997833,378.056976 352.477722,381.090759 
	C355.950867,381.090759 358.723358,380.950165 361.465698,381.175903 
	C362.295105,381.244171 363.040955,382.327393 363.825073,382.945709 
	C363.044586,383.566742 362.305054,384.649719 361.476013,384.723236 
	C358.860413,384.955200 356.211304,384.808807 353.544769,384.808807 
	C352.908417,388.744263 352.370972,392.333557 351.634064,395.881409 
	C351.595154,396.068817 349.867920,395.905579 348.767914,395.905579 
	C348.767914,387.138092 348.767914,378.735138 348.767914,369.810577 
	C353.601135,369.810577 358.211914,369.725677 362.813110,369.897125 
	C363.549713,369.924530 364.243561,371.099274 364.957184,371.743591 
	C364.269836,372.257172 363.618805,373.142853 362.888367,373.214111 
	C360.749847,373.422546 358.579712,373.306549 355.935822,373.322052 
z"/>
<path fill="#7D8044" opacity="1.000000" stroke="none" 
	d="
M273.968384,392.901764 
	C274.579803,393.373596 275.191223,393.845459 275.802643,394.317322 
	C275.002319,394.907227 274.221100,395.974091 273.398438,396.007019 
	C269.113586,396.178558 264.818207,396.086975 260.143921,396.086975 
	C260.143921,387.301849 260.143921,378.802277 260.143921,369.928589 
	C261.362976,370.026093 262.570251,370.122620 264.130676,370.247406 
	C264.130676,377.692291 264.130676,384.805725 263.861084,392.193726 
	C263.227722,385.515564 262.863922,378.562866 262.500153,371.610168 
	C262.004303,371.631104 261.508484,371.652008 261.012665,371.672943 
	C261.012665,378.720306 260.964630,385.768494 261.086609,392.813751 
	C261.098846,393.522400 262.109070,394.785583 262.709351,394.818451 
	C266.331360,395.016602 269.969543,394.954132 273.598907,394.854553 
	C273.739807,394.850708 273.846008,393.581390 273.968384,392.901764 
z"/>
<path fill="#6F751A" opacity="1.000000" stroke="none" 
	d="
M273.530701,392.822876 
	C273.846008,393.581390 273.739807,394.850708 273.598907,394.854553 
	C269.969543,394.954132 266.331360,395.016602 262.709351,394.818451 
	C262.109070,394.785583 261.098846,393.522400 261.086609,392.813751 
	C260.964630,385.768494 261.012665,378.720306 261.012665,371.672943 
	C261.508484,371.652008 262.004303,371.631104 262.500153,371.610168 
	C262.863922,378.562866 263.227722,385.515564 263.981140,392.636261 
	C267.278198,392.784180 270.185608,392.764069 273.530701,392.822876 
z"/>
<path fill="#F0F1DE" opacity="1.000000" stroke="none" 
	d="
M142.378204,382.465515 
	C141.802353,379.459534 141.585770,376.691345 141.393372,374.232452 
	C142.127609,373.710846 142.377274,373.383942 142.654892,373.358154 
	C149.076004,372.761963 151.885391,374.161316 151.930771,377.939667 
	C151.975723,381.683594 149.530426,382.950684 142.378204,382.465515 
z"/>
<path fill="#F0F1DE" opacity="1.000000" stroke="none" 
	d="
M322.533569,384.290558 
	C323.556793,381.307007 324.462524,378.684540 325.368256,376.062073 
	C325.720795,375.988708 326.073303,375.915344 326.425842,375.841980 
	C327.513000,378.920471 328.600128,381.998962 330.147797,386.381470 
	C326.936829,385.663086 324.676422,385.157379 322.533569,384.290558 
z"/>
</svg>